 http://img535.imageshack.us/img535/9782/eb154eaf12bd44469599519.jpg

Country.......: USA
Genre.........: Western
Date release..: 29.01.2011 [World]
Director......: Jason Priestley
Writers.......: Tippi Dobrofsky, Neal H. Dobrofsky
Duration......: 88 min.
More..........: http://www.imdb.com/title/tt1716743
Trailer.......: http://www.imdb.com/video/screenplay/vi3721239833
Trailer.......:

Pilot :
John Goodnight in his youth with his own eyes he saw, like a bunch of thugs killed his entire family. After this event, John had promised myself that will always defend justice and fight those who violate it.

Cats :
Luke Perry   	 ...  	John Goodnight
Lara Gilchrist 	... 	Kate Ramsey
Hayden Davies 	... 	Boy
Brett Dier 	... 	Young Clerk
Sam Duke 	... 	Young John Goodnight
Darla Fay 	... 	Betty
Luis Javier 	... 	Citizen
Sean Wei Mah 	... 	Whitecloud
Maya Massar 	... 	White woman
Darren Moore 		
Hal Myshrall 	... 	Cronie
Adom Osei 	... 	Isaack
Melanie Papalia 	... 	Ms. Landry
Winston Rekert 	... 	Frank LeGrange
John Shaw 	... 	Mr. Jones 

Data Technical :
!!! SAMPLE !!!
Audio.....: English
Subtitles.: None
Format                           : AVI
Format/Info                      : Audio Video Interleave
File size                        : 701 MiB
Duration                         : 1h 28mn
Overall bit rate                 : 1 112 Kbps
Writing application              : VirtualDubMod 1.5.10.2 (build 2540/release)
Writing library                  : VirtualDubMod build 2540/release
Video
ID                               : 0
Format                           : MPEG-4 Visual
Format profile                   : Advanced Simple@L5
Format settings, BVOP            : Yes
Format settings, QPel            : No
Format settings, GMC             : No warppoints
Format settings, Matrix          : Default (H.263)
Codec ID                         : XVID
Codec ID/Hint                    : XviD
Duration                         : 1h 28mn
Bit rate                         : 936 Kbps
Width                            : 640 pixels
Height                           : 352 pixels
Display aspect ratio             : 16:9
Frame rate                       : 23.976 fps
Color space                      : YUV
Chroma subsampling               : 4:2:0
Bit depth                        : 8 bits
Scan type                        : Progressive
Bits/(Pixel*Frame)               : 0.173
Stream size                      : 589 MiB (84%)
Writing library                  : XviD 63
Audio
ID                               : 1
Format                           : MPEG Audio
Format version                   : Version 1
Format profile                   : Layer 3
Mode                             : Joint stereo
Mode extension                   : MS Stereo
Codec ID                         : 55
Codec ID/Hint                    : MP3
Duration                         : 1h 28mn
Bit rate mode                    : Variable
Bit rate                         : 160 Kbps
Channel(s)                       : 2 channels
Sampling rate                    : 48.0 KHz
Stream size                      : 103 MiB (15%)
Alignment                        : Aligned on interleaves
Interleave, duration             : 24 ms (0.58 video frame)
Interleave, preload duration     : 173 ms
Writing library                  : LAME3.90.
Encoding settings                : -m j -V 4 -q 2 -lowpass 18 --abr 160

Screen : 
http://img9.imageshack.us/img9/136/goodnightforjustice2011.jpg 
http://img705.imageshack.us/img705/136/goodnightforjustice2011.jpg 
http://img41.imageshack.us/img41/8984/goodnightforjustice2011u.jpg 
http://img7.imageshack.us/img7/136/goodnightforjustice2011.jpg 
http://img543.imageshack.us/img543/136/goodnightforjustice2011.jpg